<?xml version="1.0" standalone="no"?>
<!DOCTYPE svg PUBLIC "-//W3C//DTD SVG 20010904//EN"
 "http://www.w3.org/TR/2001/REC-SVG-20010904/DTD/svg10.dtd">
<svg version="1.0" xmlns="http://www.w3.org/2000/svg"
 width="1080.000000pt" height="1350.000000pt" viewBox="0 0 1080.000000 1350.000000"
 preserveAspectRatio="xMidYMid meet">

<g transform="translate(0.000000,1350.000000) scale(0.100000,-0.100000)"
fill="#000000" stroke="none">
<path d="M0 6750 l0 -6750 5400 0 5400 0 0 6750 0 6750 -5400 0 -5400 0 0
-6750z m5569 2474 c63 -8 165 -28 227 -44 107 -28 301 -94 316 -109 7 -7 42
-231 36 -236 -2 -2 -52 21 -113 50 -129 63 -256 106 -398 137 -88 19 -132 22
-322 22 -248 0 -332 -13 -526 -80 -658 -228 -1085 -863 -1056 -1568 8 -201 42
-366 107 -532 24 -58 27 -78 20 -110 -4 -21 -13 -72 -20 -111 -6 -40 -15 -73
-19 -73 -11 0 -126 244 -154 330 -73 218 -101 385 -100 615 0 219 22 356 88
553 229 685 767 1110 1481 1171 120 11 279 5 433 -15z m1250 -581 l0 -608 -57
-46 c-77 -63 -516 -349 -535 -349 -4 0 -7 362 -7 805 l0 805 300 0 300 0 -1
-607z m-751 -499 l-3 -607 -118 -68 c-127 -75 -421 -234 -449 -245 -17 -6 -18
35 -18 760 l0 766 295 0 295 0 -2 -606z m1552 257 c0 -16 -120 -876 -126 -901
-5 -21 -12 -10 -44 67 -21 51 -48 113 -59 138 l-20 46 -99 -88 c-420 -377
-904 -716 -1537 -1080 -630 -362 -1045 -483 -1549 -452 -303 18 -484 57 -656
141 -88 42 -117 63 -181 127 -81 81 -118 144 -144 246 -36 142 -6 332 83 519
42 87 137 246 147 246 2 0 -14 -41 -36 -92 -73 -168 -92 -247 -93 -388 -1
-149 17 -208 90 -289 99 -110 238 -147 519 -138 413 13 774 95 1175 266 615
263 1357 767 1918 1303 45 43 82 80 82 82 0 2 -36 18 -80 37 -44 18 -80 36
-80 39 0 6 648 177 678 179 6 1 12 -3 12 -8z m-2310 -713 l-1 -563 -82 -39
c-175 -83 -489 -226 -498 -226 -5 0 -9 283 -9 695 l0 695 295 0 295 0 0 -562z
m-752 -430 l-3 -472 -79 -33 c-80 -34 -452 -175 -493 -188 l-23 -6 0 585 0
586 300 0 300 0 -2 -472z m2722 208 c0 -82 -24 -300 -45 -403 -89 -442 -338
-853 -686 -1133 -121 -97 -209 -149 -367 -217 -526 -227 -1109 -210 -1624 47
-111 56 -309 178 -322 199 -3 4 36 14 87 21 703 93 1481 401 2060 815 65 46
117 80 117 76 0 -20 -392 -390 -535 -504 -256 -206 -579 -412 -848 -542 -60
-29 -105 -55 -100 -58 21 -13 199 -38 313 -43 369 -18 751 95 1060 314 122 87
297 262 382 382 80 112 177 288 213 384 39 103 73 245 95 400 l21 140 42 35
c23 20 60 53 82 73 47 44 55 46 55 14z m-3953 -2673 c37 -17 73 -65 73 -95 0
-15 -9 -18 -50 -18 -43 0 -55 4 -74 26 -16 20 -28 25 -43 20 -51 -16 -30 -66
36 -87 95 -30 141 -75 141 -138 0 -77 -57 -124 -150 -124 -68 0 -114 22 -147
73 -35 51 -31 60 31 60 47 0 56 -3 70 -26 20 -29 62 -30 80 -2 15 25 -12 48
-98 83 -75 31 -106 66 -106 120 0 42 34 93 73 110 44 19 122 18 164 -2z m791
1 c129 -53 173 -218 90 -336 -56 -81 -192 -107 -282 -54 -112 66 -139 228 -54
330 57 70 162 96 246 60z m333 -154 l23 -135 35 148 35 148 60 -3 60 -3 35
-145 35 -145 25 145 26 145 58 3 c31 2 57 1 57 -1 0 -6 -89 -377 -96 -399 -4
-15 -17 -18 -69 -18 -62 0 -65 1 -72 28 -3 15 -18 77 -33 137 l-26 110 -33
-138 -33 -138 -66 3 -65 3 -49 200 c-26 110 -48 203 -48 207 0 4 24 8 53 10
39 2 54 -1 58 -12 3 -8 17 -76 30 -150z m902 159 c47 -13 106 -63 123 -106 8
-18 14 -35 14 -38 0 -3 -25 -5 -55 -5 -41 0 -57 4 -62 15 -13 36 -93 56 -134
35 -45 -25 -64 -122 -34 -179 29 -56 110 -64 155 -15 19 20 33 24 77 24 52 0
54 -1 48 -22 -11 -36 -57 -89 -95 -109 -23 -13 -55 -19 -98 -19 -107 0 -177
53 -203 153 -43 172 96 313 264 266z m3345 -17 c-7 -10 -43 -54 -80 -99 -38
-45 -68 -84 -68 -87 0 -4 36 -51 80 -107 44 -55 80 -102 80 -105 0 -2 -28 -4
-62 -4 l-63 1 -67 91 -68 92 0 -92 0 -92 -55 0 -55 0 0 210 0 210 55 0 54 0 3
-87 3 -86 60 78 c80 105 74 100 139 97 51 -4 56 -6 44 -20z m-6048 3 c37 -19
50 -43 50 -95 0 -34 -6 -48 -31 -71 -17 -16 -26 -29 -20 -29 7 0 23 -11 36
-25 30 -29 34 -97 9 -133 -30 -43 -64 -52 -199 -52 l-125 0 0 210 0 210 125 0
c93 0 134 -4 155 -15z m390 -25 l0 -40 -80 0 -80 0 0 -45 0 -45 70 0 70 0 0
-40 0 -40 -70 0 -70 0 0 -45 0 -45 80 0 80 0 0 -40 0 -40 -135 0 -135 0 0 210
0 210 135 0 135 0 0 -40z m740 0 l0 -40 -55 0 -55 0 0 -170 0 -170 -55 0 -55
0 0 170 0 170 -55 0 -55 0 0 40 0 40 165 0 165 0 0 -40z m2059 6 c38 -37 53
-84 40 -130 -9 -32 -51 -78 -81 -88 -8 -3 4 -31 35 -81 26 -43 47 -80 47 -82
0 -3 -24 -5 -54 -5 l-54 0 -47 80 c-26 44 -51 80 -56 80 -5 0 -9 -36 -9 -80
l0 -80 -55 0 -55 0 0 211 0 211 129 -4 c128 -3 130 -3 160 -32z m371 -6 l0
-40 -80 0 -80 0 0 -45 0 -45 70 0 70 0 0 -40 0 -40 -70 0 -70 0 0 -45 0 -45
80 0 80 0 0 -40 0 -40 -135 0 -135 0 0 210 0 210 135 0 135 0 0 -40z m368 7
c107 -70 119 -243 23 -330 -51 -46 -93 -57 -218 -57 l-103 0 0 211 0 211 128
-4 c121 -3 131 -5 170 -31z m262 -177 l0 -210 -55 0 -55 0 0 210 0 210 55 0
55 0 0 -210z m380 170 l0 -40 -55 0 -55 0 0 -170 0 -170 -55 0 -55 0 0 170 0
170 -55 0 -55 0 0 40 0 40 165 0 165 0 0 -40z m290 -130 l0 -170 65 0 65 0 0
-40 0 -40 -120 0 -120 0 0 210 0 210 55 0 55 0 0 -170z m300 -40 l0 -210 -55
0 -55 0 0 210 0 210 55 0 55 0 0 -210z m258 90 c42 -65 80 -119 85 -120 4 0 7
54 7 120 l0 120 50 0 50 0 0 -210 0 -210 -52 0 -53 0 -80 122 -80 121 -3 -121
-3 -122 -54 0 -55 0 0 210 0 210 55 0 56 0 77 -120z"/>
<path d="M3983 4700 c-58 -24 -71 -147 -20 -197 20 -20 36 -26 72 -27 41 -1
50 3 77 33 28 31 30 38 26 94 -4 50 -9 64 -32 84 -29 24 -81 30 -123 13z"/>
<path d="M2480 4675 l0 -45 43 0 c53 0 70 11 70 45 0 34 -17 45 -70 45 l-43 0
0 -45z"/>
<path d="M2480 4510 l0 -53 52 5 c46 5 78 24 78 48 0 24 -32 43 -78 48 l-52 5
0 -53z"/>
<path d="M5660 4666 l0 -56 44 0 c102 0 104 96 3 107 l-47 6 0 -57z"/>
<path d="M6390 4591 l0 -121 35 0 c84 0 135 49 135 129 0 31 -7 49 -28 72 -24
27 -37 33 -85 37 l-57 4 0 -121z"/>
</g>
</svg>
