<svg xmlns="http://www.w3.org/2000/svg" xmlns:xlink="http://www.w3.org/1999/xlink" width="160" zoomAndPan="magnify" viewBox="0 0 120 119.999999" height="160" preserveAspectRatio="xMidYMid meet" version="1.2"><defs><clipPath id="e0662c7af9"><path d="M 52.300781 47.765625 L 59.03125 47.765625 L 59.03125 63.722656 L 52.300781 63.722656 Z M 52.300781 47.765625 "/></clipPath><clipPath id="2f827a49bb"><path d="M 52.34375 47.863281 L 59.027344 47.863281 L 59.027344 60.464844 C 56.738281 61.613281 54.503906 62.640625 52.34375 63.570312 Z M 52.34375 47.863281 "/></clipPath><clipPath id="adeed66dea"><path d="M 0.320312 0.765625 L 7.03125 0.765625 L 7.03125 16.601562 L 0.320312 16.601562 Z M 0.320312 0.765625 "/></clipPath><clipPath id="c28d3afef9"><path d="M 0.34375 0.863281 L 7.027344 0.863281 L 7.027344 13.464844 C 4.738281 14.613281 2.503906 15.640625 0.34375 16.570312 Z M 0.34375 0.863281 "/></clipPath><clipPath id="3090fd536f"><rect x="0" width="8" y="0" height="17"/></clipPath><clipPath id="89b30007fe"><path d="M 39.226562 36.421875 L 68.644531 36.421875 L 68.644531 66.992188 L 39.226562 66.992188 Z M 39.226562 36.421875 "/></clipPath><clipPath id="cb3dcc475a"><path d="M 68.109375 38.566406 C 68.253906 39.496094 68.394531 40.417969 68.539062 41.339844 C 61.960938 37.449219 53.6875 37.980469 47.875 42.621094 C 41.558594 47.671875 39.382812 56.578125 42.730469 64.230469 C 42.570312 65.113281 42.414062 66.007812 42.25 66.890625 C 41.441406 65.527344 38.109375 59.578125 39.753906 51.960938 C 40.15625 50.085938 41.632812 44.535156 46.691406 40.582031 C 52.480469 36.050781 60.722656 35.378906 68.109375 38.566406 "/></clipPath><clipPath id="4f7dc2ae37"><path d="M 0.226562 0.421875 L 29.640625 0.421875 L 29.640625 30.960938 L 0.226562 30.960938 Z M 0.226562 0.421875 "/></clipPath><clipPath id="27428f6369"><path d="M 29.109375 2.566406 C 29.253906 3.496094 29.394531 4.417969 29.539062 5.339844 C 22.960938 1.449219 14.6875 1.980469 8.875 6.621094 C 2.558594 11.671875 0.382812 20.578125 3.730469 28.230469 C 3.570312 29.113281 3.414062 30.007812 3.25 30.890625 C 2.441406 29.527344 -0.890625 23.578125 0.753906 15.960938 C 1.15625 14.085938 2.632812 8.535156 7.691406 4.582031 C 13.480469 0.0507812 21.722656 -0.621094 29.109375 2.566406 "/></clipPath><clipPath id="4613e4da55"><rect x="0" width="30" y="0" height="31"/></clipPath><clipPath id="5cacf22df4"><path d="M 69.21875 36.421875 L 76.140625 36.421875 L 76.140625 54.878906 L 69.21875 54.878906 Z M 69.21875 36.421875 "/></clipPath><clipPath id="2d4a15c380"><path d="M 76.023438 36.515625 L 76.023438 50.226562 L 74.851562 51.1875 C 74.851562 51.1875 74.84375 51.1875 74.84375 51.195312 C 74.835938 51.195312 74.835938 51.203125 74.828125 51.203125 C 73.113281 52.371094 71.28125 53.558594 69.339844 54.757812 L 69.339844 36.515625 Z M 76.023438 36.515625 "/></clipPath><clipPath id="8daff32018"><path d="M 0.21875 0.480469 L 7.078125 0.480469 L 7.078125 18.878906 L 0.21875 18.878906 Z M 0.21875 0.480469 "/></clipPath><clipPath id="4983680abd"><path d="M 7.023438 0.515625 L 7.023438 14.226562 L 5.851562 15.1875 C 5.851562 15.1875 5.84375 15.1875 5.84375 15.195312 C 5.835938 15.195312 5.835938 15.203125 5.828125 15.203125 C 4.113281 16.371094 2.28125 17.558594 0.339844 18.757812 L 0.339844 0.515625 Z M 7.023438 0.515625 "/></clipPath><clipPath id="772015adfb"><rect x="0" width="8" y="0" height="19"/></clipPath><clipPath id="52ee2fb237"><path d="M 60.761719 42 L 67.683594 42 L 67.683594 59.683594 L 60.761719 59.683594 Z M 60.761719 42 "/></clipPath><clipPath id="cc3e685c75"><path d="M 60.917969 42.164062 L 67.601562 42.164062 L 67.601562 55.808594 C 65.5 57.050781 63.273438 58.296875 60.917969 59.511719 Z M 60.917969 42.164062 "/></clipPath><clipPath id="019efb5ed4"><path d="M 0.761719 0 L 7.679688 0 L 7.679688 17.519531 L 0.761719 17.519531 Z M 0.761719 0 "/></clipPath><clipPath id="c005740ff1"><path d="M 0.917969 0.164062 L 7.601562 0.164062 L 7.601562 13.808594 C 5.5 15.050781 3.273438 16.296875 0.917969 17.511719 Z M 0.917969 0.164062 "/></clipPath><clipPath id="6a0bb88292"><rect x="0" width="8" y="0" height="18"/></clipPath><clipPath id="a8c2086666"><path d="M 43.648438 53.53125 L 50.570312 53.53125 L 50.570312 66.992188 L 43.648438 66.992188 Z M 43.648438 53.53125 "/></clipPath><clipPath id="413895cddf"><path d="M 43.824219 53.699219 L 50.507812 53.699219 L 50.507812 64.34375 C 48.183594 65.296875 45.945312 66.140625 43.824219 66.890625 Z M 43.824219 53.699219 "/></clipPath><clipPath id="6d489da375"><path d="M 0.679688 0.53125 L 7.570312 0.53125 L 7.570312 13.960938 L 0.679688 13.960938 Z M 0.679688 0.53125 "/></clipPath><clipPath id="b2f5c8d049"><path d="M 0.824219 0.699219 L 7.507812 0.699219 L 7.507812 11.34375 C 5.183594 12.296875 2.945312 13.140625 0.824219 13.890625 Z M 0.824219 0.699219 "/></clipPath><clipPath id="0db39da2f0"><rect x="0" width="8" y="0" height="14"/></clipPath><clipPath id="578798a383"><path d="M 35 45.839844 L 85.179688 45.839844 L 85.179688 71.796875 L 35 71.796875 Z M 35 45.839844 "/></clipPath><clipPath id="026ae13878"><path d="M 85.082031 45.996094 L 83.613281 56.527344 C 83.167969 55.484375 82.734375 54.441406 82.292969 53.398438 C 76.78125 58.433594 71.6875 61.882812 67.960938 64.140625 C 60.542969 68.632812 54.570312 72.140625 46.832031 71.738281 C 44.027344 71.585938 37.496094 71.242188 35.597656 66.890625 C 33.730469 62.625 37.667969 57.539062 38.042969 57.066406 C 37.765625 57.546875 34.953125 62.609375 37.082031 65.617188 C 38.914062 68.21875 43.285156 67.695312 46.898438 67.265625 C 50.035156 66.890625 56.011719 65.746094 65.410156 59.796875 C 68.515625 57.832031 72.460938 55.050781 76.710938 51.226562 C 76.980469 50.976562 77.253906 50.730469 77.53125 50.476562 C 78.078125 49.972656 78.632812 49.449219 79.195312 48.898438 C 78.527344 48.609375 77.867188 48.316406 77.199219 48.023438 C 79.824219 47.347656 82.457031 46.671875 85.082031 45.996094 "/></clipPath><clipPath id="079ad4c3f0"><path d="M 0 0.839844 L 50.179688 0.839844 L 50.179688 26.796875 L 0 26.796875 Z M 0 0.839844 "/></clipPath><clipPath id="633b66e042"><path d="M 50.082031 0.996094 L 48.613281 11.527344 C 48.167969 10.484375 47.734375 9.441406 47.292969 8.398438 C 41.78125 13.433594 36.6875 16.882812 32.960938 19.140625 C 25.542969 23.632812 19.570312 27.140625 11.832031 26.738281 C 9.027344 26.585938 2.496094 26.242188 0.597656 21.890625 C -1.269531 17.625 2.667969 12.539062 3.042969 12.066406 C 2.765625 12.546875 -0.046875 17.609375 2.082031 20.617188 C 3.914062 23.21875 8.285156 22.695312 11.898438 22.265625 C 15.035156 21.890625 21.011719 20.746094 30.410156 14.796875 C 33.515625 12.832031 37.460938 10.050781 41.710938 6.226562 C 41.980469 5.976562 42.253906 5.730469 42.53125 5.476562 C 43.078125 4.972656 43.632812 4.449219 44.195312 3.898438 C 43.527344 3.609375 42.867188 3.316406 42.199219 3.023438 C 44.824219 2.347656 47.457031 1.671875 50.082031 0.996094 "/></clipPath><clipPath id="fed74a5a08"><rect x="0" width="51" y="0" height="27"/></clipPath><clipPath id="eba668a184"><path d="M 46.726562 56.222656 L 81.332031 56.222656 L 81.332031 78.335938 L 46.726562 78.335938 Z M 46.726562 56.222656 "/></clipPath><clipPath id="a878b96048"><path d="M 78.753906 66.890625 C 76.480469 71.324219 73.300781 73.859375 71.679688 74.992188 C 69.894531 76.078125 66.007812 78.121094 60.714844 78.234375 C 53.425781 78.382812 48.332031 74.773438 46.789062 73.582031 C 50.632812 73.117188 55.863281 72.058594 61.621094 69.5625 C 66.28125 67.550781 69.960938 65.175781 72.675781 63.121094 C 70.945312 65.0625 68.753906 67.230469 66.03125 69.375 C 62.507812 72.140625 59.117188 74.085938 56.296875 75.433594 C 66.746094 75.742188 69.714844 74.152344 70.277344 72.457031 C 70.683594 71.234375 69.910156 69.667969 70.945312 68.578125 C 71.972656 67.507812 73.554688 68.167969 74.964844 67.71875 C 76.667969 67.183594 78.4375 64.957031 79.210938 58.074219 C 79.871094 57.503906 80.53125 56.925781 81.191406 56.355469 C 81.226562 58.328125 81.039062 62.429688 78.753906 66.890625 "/></clipPath><clipPath id="4568c0891f"><path d="M 0.726562 0.222656 L 35.332031 0.222656 L 35.332031 22.335938 L 0.726562 22.335938 Z M 0.726562 0.222656 "/></clipPath><clipPath id="0158e937b9"><path d="M 32.753906 10.890625 C 30.480469 15.324219 27.300781 17.859375 25.679688 18.992188 C 23.894531 20.078125 20.007812 22.121094 14.714844 22.234375 C 7.425781 22.382812 2.332031 18.773438 0.789062 17.582031 C 4.632812 17.117188 9.863281 16.058594 15.621094 13.5625 C 20.28125 11.550781 23.960938 9.175781 26.675781 7.121094 C 24.945312 9.0625 22.753906 11.230469 20.03125 13.375 C 16.507812 16.140625 13.117188 18.085938 10.296875 19.433594 C 20.746094 19.742188 23.714844 18.152344 24.277344 16.457031 C 24.683594 15.234375 23.910156 13.667969 24.945312 12.578125 C 25.972656 11.507812 27.554688 12.167969 28.964844 11.71875 C 30.667969 11.183594 32.4375 8.957031 33.210938 2.074219 C 33.871094 1.503906 34.53125 0.925781 35.191406 0.355469 C 35.226562 2.328125 35.039062 6.429688 32.753906 10.890625 "/></clipPath><clipPath id="0a557e5759"><rect x="0" width="36" y="0" height="23"/></clipPath></defs><g id="363fee89d4"><g clip-rule="nonzero" clip-path="url(#e0662c7af9)"><g clip-rule="nonzero" clip-path="url(#2f827a49bb)"><g transform="matrix(1,0,0,1,52,47)"><g clip-path="url(#3090fd536f)"><g clip-rule="nonzero" clip-path="url(#adeed66dea)"><g clip-rule="nonzero" clip-path="url(#c28d3afef9)"><rect x="0" width="8" height="17" y="0" style="fill:#e2d429;fill-opacity:1;stroke:none;"/></g></g></g></g></g></g><g clip-rule="nonzero" clip-path="url(#89b30007fe)"><g clip-rule="nonzero" clip-path="url(#cb3dcc475a)"><g transform="matrix(1,0,0,1,39,36)"><g clip-path="url(#4613e4da55)"><g clip-rule="nonzero" clip-path="url(#4f7dc2ae37)"><g clip-rule="nonzero" clip-path="url(#27428f6369)"><rect x="0" width="30" height="31" y="0" style="fill:#e2d429;fill-opacity:1;stroke:none;"/></g></g></g></g></g></g><g clip-rule="nonzero" clip-path="url(#5cacf22df4)"><g clip-rule="nonzero" clip-path="url(#2d4a15c380)"><g transform="matrix(1,0,0,1,69,36)"><g clip-path="url(#772015adfb)"><g clip-rule="nonzero" clip-path="url(#8daff32018)"><g clip-rule="nonzero" clip-path="url(#4983680abd)"><rect x="0" width="8" height="19" y="0" style="fill:#e2d429;fill-opacity:1;stroke:none;"/></g></g></g></g></g></g><g clip-rule="nonzero" clip-path="url(#52ee2fb237)"><g clip-rule="nonzero" clip-path="url(#cc3e685c75)"><g transform="matrix(1,0,0,1,60,42)"><g clip-path="url(#6a0bb88292)"><g clip-rule="nonzero" clip-path="url(#019efb5ed4)"><g clip-rule="nonzero" clip-path="url(#c005740ff1)"><rect x="0" width="8" height="18" y="0" style="fill:#e2d429;fill-opacity:1;stroke:none;"/></g></g></g></g></g></g><g clip-rule="nonzero" clip-path="url(#a8c2086666)"><g clip-rule="nonzero" clip-path="url(#413895cddf)"><g transform="matrix(1,0,0,1,43,53)"><g clip-path="url(#0db39da2f0)"><g clip-rule="nonzero" clip-path="url(#6d489da375)"><g clip-rule="nonzero" clip-path="url(#b2f5c8d049)"><rect x="0" width="8" height="14" y="0" style="fill:#e2d429;fill-opacity:1;stroke:none;"/></g></g></g></g></g></g><g clip-rule="nonzero" clip-path="url(#578798a383)"><g clip-rule="nonzero" clip-path="url(#026ae13878)"><g transform="matrix(1,0,0,1,35,45)"><g clip-path="url(#fed74a5a08)"><g clip-rule="nonzero" clip-path="url(#079ad4c3f0)"><g clip-rule="nonzero" clip-path="url(#633b66e042)"><rect x="0" width="51" height="27" y="0" style="fill:#000000;fill-opacity:1;stroke:none;"/></g></g></g></g></g></g><g clip-rule="nonzero" clip-path="url(#eba668a184)"><g clip-rule="nonzero" clip-path="url(#a878b96048)"><g transform="matrix(1,0,0,1,46,56)"><g clip-path="url(#0a557e5759)"><g clip-rule="nonzero" clip-path="url(#4568c0891f)"><g clip-rule="nonzero" clip-path="url(#0158e937b9)"><rect x="0" width="36" height="23" y="0" style="fill:#e2d429;fill-opacity:1;stroke:none;"/></g></g></g></g></g></g></g></svg>